# xmcd
#
# Track frame offsets:
#	150
#	31291
#	63348
#
# Disc length: 1127 seconds
# Revision: 1
# Processed by: cddbd v1.5.2PL0 Copyright (c) Steve Scherf et al.
# Submitted via: dBpowerAMP V12.0
#
DISCID=1e046503
DTITLE=Magda Piskorczyk - Afro Groove [dBP-LITE-FLAC+3]
DYEAR=2011
DGENRE=Blues
TTITLE0=Crossroads
TTITLE1=Down Home
TTITLE2=Rzezb Mnie
EXTD=
EXTT0=
EXTT1=
EXTT2=
PLAYORDER=
